<svg xmlns="http://www.w3.org/2000/svg" width="24" height="24">
    <path
        fill="#ffffff"
        d="M1 4a1 1 0 0 1 1-1h11a1 1 0 1
        1 0 2H3v12h1.17a3.001 3.001 0 0
        1 5.66 0H12V8a1 1 0 0 1 1-1h3.078a5
        5 0 0 1 3.904 1.877l1.922 2.403A5
        5 0 0 1 23 14.403V18a1 1 0 0 1-1
        1h-1.17a3.001 3.001 0 0 1-5.66
        0H9.83a3.001 3.001 0 0 1-5.66
        0H2a1 1 0 0 1-1-1V4Zm13 13h1.17a3.001
        3.001 0 0 1 5.66 0H21v-2.597a3 3 0 0
        0-.657-1.874l-1.923-2.403A3 3 0 0 0
        16.077 9H14v2h2a1 1 0 1 1 0 2h-2v4Zm-6
        1a1 1 0 1 0-2 0 1 1 0 0 0 2 0Zm10-1a1
        1 0 1 0 0 2 1 1 0 0 0 0-2Z"
    />
</svg>
